<svg width="25px" id="Livello_1" data-name="Livello 1" xmlns="http://www.w3.org/2000/svg" viewBox="0 0 35 35"><defs><style>.cls-1{fill:#fff;}</style></defs><path class="cls-1" d="M2.17,29.43A4.63,4.63,0,0,0,5.09,31a6.18,6.18,0,0,0,2.46-.13,4.42,4.42,0,0,0,2-1.13,3.87,3.87,0,0,0,1-3.25,3.71,3.71,0,0,0-2.36-.85A3,3,0,0,0,6,26.8a.53.53,0,0,0-.09.11c-.22.27-.42.55-.59.79-1,1.32-1.3,1.78-3.18,1.73ZM4.93,32a5.32,5.32,0,0,1-4-2.62l0-.08h0s0,.07,0,0c-.14-.29-.22-.42,0-.7s.34-.29.65-.26h.1c1.92.14,2.14-.17,2.94-1.26.17-.23.35-.49.61-.82l.11-.14a4,4,0,0,1,3-1.57,4.8,4.8,0,0,1,3.08,1.09l.15.12h0a.53.53,0,0,1,.19.33,5,5,0,0,1-1.31,4.33,5.49,5.49,0,0,1-2.5,1.4A7.22,7.22,0,0,1,4.93,32ZM1.79,28.82Zm-.93.48s0,0,0,0Z"/><path class="cls-1" d="M10.86,25.93a.52.52,0,0,1-.71.2.52.52,0,0,1-.21-.71A48.83,48.83,0,0,1,19,14.25,101.26,101.26,0,0,1,33.48,3a.53.53,0,0,1,.72.16.51.51,0,0,1,0,.57A100.31,100.31,0,0,1,22.76,18.42a47.55,47.55,0,0,1-11.35,9,.52.52,0,1,1-.49-.92A46.64,46.64,0,0,0,22,17.69,97.13,97.13,0,0,0,31.94,5.27,97.8,97.8,0,0,0,19.73,15,47.31,47.31,0,0,0,10.86,25.93Z"/></svg>