<svg width="25px" id="Livello_1" data-name="Livello 1" xmlns="http://www.w3.org/2000/svg" viewBox="0 0 35 35"><defs><style>.cls-1{fill:none;}.cls-2{fill:#fff;}</style></defs><path class="cls-1" d="M17.56,13.42a3.3,3.3,0,0,0-1.37-4.7,4.56,4.56,0,0,0-5,.31c-1.78,1.36-1.12,4.86,1,5.57C14,15.2,16.39,15.05,17.56,13.42Z"/><path class="cls-2" d="M31.87,27.25A9.87,9.87,0,0,0,28.73,15,12.05,12.05,0,0,0,24.2,13.3c-1-.18-1.91,0-2.77-.57-1.64-1.14-1.13-3.59-1.29-5.31A7.6,7.6,0,0,0,14.66.77a6.7,6.7,0,0,0-5.85.92A16.85,16.85,0,0,0,3.27,9.47a24.13,24.13,0,0,0-1.09,4.74c0,1.15,0,2.33.15,3.53C2.94,25.15,6.72,33.31,15,34.37,20.74,35.11,29.24,32.94,31.87,27.25ZM7.61,22a2.94,2.94,0,0,1-2.75-.71,3.54,3.54,0,0,1-.41-3.53A2.44,2.44,0,0,1,7,16a3.07,3.07,0,0,1,2.48,1.58A3.16,3.16,0,0,1,7.61,22ZM12,29.13a2.91,2.91,0,0,1-2.75-.71,3.52,3.52,0,0,1-.41-3.52,2.45,2.45,0,0,1,2.53-1.83,3.07,3.07,0,0,1,2.48,1.58A3.16,3.16,0,0,1,12,29.13Zm.23-14.53c-2.09-.71-2.75-4.21-1-5.57a4.56,4.56,0,0,1,5-.31,3.3,3.3,0,0,1,1.37,4.7C16.39,15.05,14,15.2,12.21,14.6Zm6.84,17.25a3,3,0,0,1-2.76-.71,3.56,3.56,0,0,1-.4-3.53,2.45,2.45,0,0,1,2.53-1.82,3.07,3.07,0,0,1,2.47,1.58A3.17,3.17,0,0,1,19.05,31.85Zm7.53-2.24a2.92,2.92,0,0,1-2.76-.71,3.49,3.49,0,0,1-.4-3.52,2.43,2.43,0,0,1,2.52-1.82,3,3,0,0,1,2.48,1.58A3.15,3.15,0,0,1,26.58,29.61Z"/></svg>