<svg width="25px" id="Livello_1" data-name="Livello 1" xmlns="http://www.w3.org/2000/svg" viewBox="0 0 35 35"><defs><style>.cls-1{fill:#fff;}</style></defs><path class="cls-1" d="M24.27,12.78l-.5.49-.49-.49a.68.68,0,0,0-.54-.26.69.69,0,0,0-.49.22.67.67,0,0,0-.22.47.75.75,0,0,0,.26.56l1.47,1.47,1.49-1.48a.68.68,0,0,0,0-1A.66.66,0,0,0,24.27,12.78Z"/><path class="cls-1" d="M11.22,15.24l1.48-1.48a.7.7,0,1,0-1-1l-.49.49-.49-.49a.68.68,0,0,0-.54-.26.72.72,0,0,0-.49.21.73.73,0,0,0-.22.48.75.75,0,0,0,.26.56Z"/><path class="cls-1" d="M17.5,3.57A13.93,13.93,0,1,0,31.43,17.5,13.95,13.95,0,0,0,17.5,3.57ZM8.72,11.75a2,2,0,0,1,2.51-.34,2,2,0,0,1,2.51.33,2.06,2.06,0,0,1-.05,3l-2.47,2.47L8.76,14.75A2,2,0,0,1,8.72,11.75Zm8.78,16.9a9.79,9.79,0,0,1-9.35-7h18.7A9.79,9.79,0,0,1,17.5,28.65Zm8.73-13.91-2.47,2.47L21.3,14.75a2.06,2.06,0,0,1,0-3,2.11,2.11,0,0,1,1.41-.63,2.06,2.06,0,0,1,1.1.29,2,2,0,0,1,2.51.33A2.06,2.06,0,0,1,26.23,14.74Z"/><path class="cls-1" d="M17.5,27.25a8.2,8.2,0,0,0,7.28-4.18H10.22A8.2,8.2,0,0,0,17.5,27.25Z"/></svg>