<svg width="25px" id="Livello_1" data-name="Livello 1" xmlns="http://www.w3.org/2000/svg" viewBox="0 0 35 35"><defs><style>.cls-1{fill:#fff;}</style></defs><path class="cls-1" d="M29.47,22.92c-.06.06-.11.13-.18.19l-.3.27a1.54,1.54,0,0,1-.19.17l-.4.29-.19.13c-.21.14-.44.27-.68.4a22.09,22.09,0,0,1-10,2.08,22.09,22.09,0,0,1-10-2.08c-.24-.13-.47-.26-.68-.4l-.2-.14c-.13-.09-.27-.18-.39-.28L6,23.38l-.29-.27c-.07-.06-.12-.13-.18-.19l-.23-.27,0,0v4.77c0,2.71,5.61,5,12.24,5s12.24-2.29,12.24-5V22.61l0,0Z"/><path class="cls-1" d="M17.5,2.62c-6.63,0-12.24,2.29-12.24,5,0,1.06.89,2.13,2.52,3a21.44,21.44,0,0,0,9.72,2,21.44,21.44,0,0,0,9.72-2c1.63-.88,2.52-2,2.52-3C29.74,4.91,24.13,2.62,17.5,2.62Zm0,9c-4.92,0-9.08-1.59-9.08-3.48s2.72-2.72,2.84-2.76a.32.32,0,0,1,.19.62s-2.38.77-2.38,2.14,3.68,2.83,8.43,2.83a.33.33,0,0,1,.33.33A.32.32,0,0,1,17.5,11.59Z"/><path class="cls-1" d="M29.47,9.75c-.06.06-.11.13-.18.19l-.3.27-.19.17-.4.29-.19.13c-.21.14-.44.27-.68.4a22.09,22.09,0,0,1-10,2.08,22.09,22.09,0,0,1-10-2.08c-.24-.13-.47-.26-.68-.4l-.2-.14c-.13-.09-.27-.18-.39-.28L6,10.2l-.29-.26c-.07-.06-.12-.13-.18-.19L5.3,9.48l0,0v4.77c0,1.06.89,2.13,2.52,3a21.44,21.44,0,0,0,9.72,2,21.44,21.44,0,0,0,9.72-2c1.63-.87,2.52-1.94,2.52-3V9.44l0,0Z"/><path class="cls-1" d="M29.46,16.34l-.16.18L29,16.8c-.07.05-.12.11-.19.17l-.41.29-.18.13c-.21.13-.44.27-.68.4a22.1,22.1,0,0,1-10,2.07,22.1,22.1,0,0,1-10-2.07c-.24-.13-.47-.27-.68-.4l-.2-.14L6.2,17,6,16.79l-.29-.26-.18-.2c-.08-.09-.16-.17-.23-.26l0-.05v4.77c0,1.07.89,2.13,2.52,3a21.44,21.44,0,0,0,9.72,2,21.44,21.44,0,0,0,9.72-2c1.63-.88,2.52-1.94,2.52-3V16l0,.05A2.91,2.91,0,0,1,29.46,16.34Z"/></svg>