<svg width="25px" id="Livello_1" data-name="Livello 1" xmlns="http://www.w3.org/2000/svg" viewBox="0 0 35 35"><defs><style>.cls-1{fill:#fff;}</style></defs><path class="cls-1" d="M33.25,9.59a4.1,4.1,0,0,0-2.9-2.91C27.78,6,17.5,6,17.5,6S7.22,6,4.65,6.68a4.1,4.1,0,0,0-2.9,2.91,42.55,42.55,0,0,0-.69,7.91,42.55,42.55,0,0,0,.69,7.91,4.1,4.1,0,0,0,2.9,2.91C7.22,29,17.5,29,17.5,29s10.28,0,12.85-.69a4.1,4.1,0,0,0,2.9-2.91,42.55,42.55,0,0,0,.69-7.91A42.55,42.55,0,0,0,33.25,9.59Zm-19,12.84V12.57l8.54,4.93Z"/></svg>