<svg width="25px" id="Livello_1" data-name="Livello 1" xmlns="http://www.w3.org/2000/svg" viewBox="0 0 35 35"><defs><style>.cls-1{fill:#fff;fill-rule:evenodd;}</style></defs><path class="cls-1" d="M21.08,7.29c.25-.55.51-1.08.81-1.61.06-.1.11-.12.24-.1a41.14,41.14,0,0,1,6.19,1.84.66.66,0,0,1,.33.24,26.38,26.38,0,0,1,4.67,17.52.46.46,0,0,1-.26.45,24.38,24.38,0,0,1-7.59,3.76c-.28.09-.37,0-.48-.15-.55-.81-1-1.64-1.52-2.47a15.71,15.71,0,0,0,2.67-1.29l-.64-.54a16.09,16.09,0,0,1-8,1.78,16.09,16.09,0,0,1-8-1.78l-.64.54a15.71,15.71,0,0,0,2.67,1.29c-.48.83-1,1.66-1.52,2.47-.11.17-.2.24-.48.15a24.38,24.38,0,0,1-7.59-3.76.46.46,0,0,1-.26-.45A26.38,26.38,0,0,1,6.35,7.66a.66.66,0,0,1,.33-.24,41.14,41.14,0,0,1,6.19-1.84c.13,0,.18,0,.24.1.3.53.56,1.06.81,1.61a22.24,22.24,0,0,1,7.16,0Zm-8.89,8.33a3,3,0,0,0-2.83,3.12,3,3,0,0,0,2.83,3.12A3,3,0,0,0,15,18.74a3,3,0,0,0-2.83-3.12Zm10.62,0A3,3,0,0,0,20,18.74a3,3,0,0,0,2.83,3.12,3,3,0,0,0,2.83-3.12A3,3,0,0,0,22.81,15.62Z"/></svg>