<svg id="visual" viewBox="0 0 900 600" width="900" height="600" xmlns="http://www.w3.org/2000/svg" xmlns:xlink="http://www.w3.org/1999/xlink" version="1.1"><rect x="0" y="0" width="900" height="600" fill="#16273b"></rect><g fill="none" stroke="#FF6900" stroke-width="2"><circle r="64" cx="466" cy="26"></circle><circle r="11" cx="691" cy="405"></circle><circle r="39" cx="745" cy="114"></circle><circle r="22" cx="270" cy="326"></circle><circle r="61" cx="858" cy="517"></circle><circle r="37" cx="517" cy="564"></circle><circle r="57" cx="303" cy="164"></circle><circle r="41" cx="26" cy="190"></circle><circle r="55" cx="108" cy="434"></circle><circle r="10" cx="512" cy="276"></circle><circle r="14" cx="1" cy="325"></circle><circle r="23" cx="595" cy="78"></circle><circle r="36" cx="885" cy="4"></circle><circle r="49" cx="55" cy="570"></circle><circle r="59" cx="298" cy="556"></circle><circle r="15" cx="886" cy="175"></circle><circle r="56" cx="214" cy="51"></circle><circle r="39" cx="433" cy="442"></circle><circle r="41" cx="81" cy="36"></circle><circle r="31" cx="762" cy="262"></circle><circle r="14" cx="166" cy="182"></circle><circle r="53" cx="635" cy="209"></circle><circle r="12" cx="871" cy="354"></circle><circle r="42" cx="701" cy="538"></circle></g></svg>