<?xml version="1.0" encoding="UTF-8"?>
<svg id="Livello_1" data-name="Livello 1" xmlns="http://www.w3.org/2000/svg" viewBox="0 0 512 512">
  <defs>
    <style>
      .cls-1 {
        fill: #d15988;
      }
    </style>
  </defs>
  <path class="cls-1" d="M176.95,280.63h0c-14.25,0-23.74-14.72-17.85-27.69l66.18-146.01c6.96-15.35,28.76-15.35,35.71,0l127.57,281.81c9.74,21.51-19.77,38.66-33.72,19.61-6.57-8.97-13.02-20.41-18.95-34.99-3-7.39-10.18-12.23-18.16-12.23h-176.58c-14.31,0-23.79-14.83-17.8-27.82l.3-.66c3.2-6.94,10.15-11.39,17.8-11.39h143.5c14.4,0,23.89-15.01,17.7-28.02l-42.35-89.1c-7.13-15-28.51-14.89-35.49.18l-30.08,64.95c-3.21,6.93-10.15,11.37-17.79,11.37Z"/>
</svg>