<?xml version="1.0" encoding="UTF-8"?>
<svg id="Livello_1" data-name="Livello 1" xmlns="http://www.w3.org/2000/svg" xmlns:xlink="http://www.w3.org/1999/xlink" viewBox="0 0 681 241">
  <defs>
    <style>
      .cls-1 {
        fill: url(#Sfumatura_senza_nome_5);
      }

      .cls-2 {
        fill: #49b763;
      }

      .cls-3 {
        fill: #fff;
      }
    </style>
    <linearGradient id="Sfumatura_senza_nome_5" data-name="Sfumatura senza nome 5" x1="53.97" y1="120.5" x2="236.49" y2="120.5" gradientUnits="userSpaceOnUse">
      <stop offset="0" stop-color="#2d9144"/>
      <stop offset="1" stop-color="#49b763"/>
    </linearGradient>
  </defs>
  <path class="cls-1" d="M110.54,88.4l-.3,35.69c-.04,4.98-4.09,8.99-9.07,8.99h-37.95c-5,0-9.06-4.05-9.07-9.05l-.17-90.24c0-5.02,4.05-9.09,9.07-9.09h64.74c32.38,0,57.73,7.35,76.06,22.05,21.77,17.58,32.66,41.45,32.66,71.59s-9.3,52.38-27.91,70.61c-18.61,18.24-42.56,27.35-71.87,27.35-1.99,0-4.7-.06-8.15-.19-4.88-.18-8.74-4.19-8.74-9.06v-38.2c0-5.01,4.06-9.07,9.07-9.07h0c33.03,0,49.54-13.82,49.54-41.45,0-25.96-16.24-38.94-48.7-38.94h-10.12c-4.98,0-9.03,4.01-9.07,8.99Z"/>
  <g>
    <path class="cls-3" d="M287.74,105.61h-22.78v-11.72h3.84v-25.53h-3.84v-11.72h23.45c5.35,0,9.72.33,13.1.99,3.4.66,6.61,2.01,9.61,4.05,2.98,2.07,5.33,4.86,7.04,8.38.84,1.69,1.49,3.5,1.94,5.42.45,1.93.67,3.94.67,6.06,0,4.25-.9,8.12-2.71,11.62-1.78,3.47-4.05,6.14-6.79,7.99-2.68,1.85-5.61,3.06-8.8,3.63-3.17.56-8.07.84-14.72.84ZM287.74,68.36v25.53h1.8c4.46,0,7.36-1.19,8.7-3.56,1.31-2.37,1.97-5.35,1.97-8.94,0-2.16-.28-4.29-.85-6.41-.59-2.11-1.62-3.74-3.1-4.89-1.46-1.15-4.06-1.73-7.82-1.73h-.7Z"/>
    <path class="cls-3" d="M360.55,105.61h-26.76v-11.72h3.94v-7.78l-12.36-17.74h-3.34v-11.72h25.6v11.72h-2.92l5.21,10,6.3-10h-2.99v-11.72h18.84v11.72h-3.06l-12.32,17.74v7.78h3.87v11.72Z"/>
    <path class="cls-3" d="M395.79,105.61h-20.1v-11.72h4.3v-25.53h-4.3v-11.72h23.2l17.81,25.59v-13.87h-3.98v-11.72h19.75v11.72h-4.26v37.88h-16.12l-20.63-29.61v17.25h4.33v11.72Z"/>
    <path class="cls-3" d="M454.02,105.61h-19.4v-11.72h3.73l9.19-25.53h-3.94v-11.72h35.21v11.72h-3.94l9.36,25.53h3.59v11.72h-25.56v-10.74h4.29l-1.87-6.16h-12.53l-2.15,6.16h4.01v10.74ZM458.63,69.06l-4.61,13.55h8.77l-4.15-13.55Z"/>
    <path class="cls-3" d="M510.71,105.61h-18.98v-11.72h3.77v-25.53h-3.87v-11.72h29.54l7.22,18.91,7.39-18.91h29.36v11.72h-3.84v25.53h3.94v11.72h-25.56v-11.72h3.91v-27.36l-14.79,39.08h-7.32l-14.65-38.73v27h3.87v11.72Z"/>
    <path class="cls-3" d="M571.79,81c0-4.08,1-8.04,2.99-11.87,1.97-3.8,5.03-7.01,9.19-9.61,1.48-.92,3-1.64,4.56-2.18,1.56-.54,3.26-.96,5.09-1.25,1.83-.29,3.75-.44,5.77-.44,8.78,0,15.57,2.57,20.38,7.71,2.39,2.53,4.2,5.28,5.42,8.24,1.22,2.96,1.83,6.09,1.83,9.4,0,6.83-2.49,12.77-7.46,17.81-4.98,5.05-11.7,7.57-20.17,7.57s-14.83-2.37-19.93-7.11c-5.12-4.72-7.68-10.81-7.68-18.27ZM593.05,81c0,5.45.53,9.12,1.58,11.02,1.01,1.92,2.59,2.89,4.75,2.89s3.73-.93,4.79-2.78c1.06-1.88,1.58-5.59,1.58-11.12s-.52-9.04-1.55-10.99c-1.01-1.92-2.62-2.89-4.82-2.89s-3.7.93-4.75,2.78c-1.06,1.85-1.58,5.55-1.58,11.09Z"/>
  </g>
  <g>
    <path class="cls-2" d="M280.9,176.41h-16.3v-7.42h2.34v-16.15h-2.38v-7.42h16.35v7.42h-1.98v4.72h7.17v-4.72h-2v-7.42h16.32v7.42h-2.34v16.15h2.34v7.42h-16.32v-7.42h2v-5.08h-7.17v5.08h1.98v7.42Z"/>
    <path class="cls-2" d="M351.79,152.85h-2.38v-7.42h15.86v7.42h-1.47v10.45c0,2.49.24,4.19.71,5.1.48.89,1.33,1.34,2.56,1.34,1.02,0,1.77-.38,2.23-1.14.46-.74.69-2.26.69-4.57v-11.18h-1.56v-7.42h11.65v7.42h-2.45v11.22c0,2.87-.42,5.21-1.25,7.04-.83,1.81-2.21,3.23-4.14,4.25-1.93,1.02-4.31,1.54-7.13,1.54-2.27,0-4.28-.28-6.04-.82-1.78-.53-3.19-1.35-4.23-2.45-1.04-1.08-1.8-2.4-2.29-3.94-.5-1.5-.76-3.8-.76-6.9v-9.93Z"/>
    <path class="cls-2" d="M446.46,176.41h-17.53v-7.42h2.7v-16.15h-2.7v-7.42h18.93c3.71,0,6.58.21,8.62.65,2,.45,3.58,1.33,4.72,2.65,1.14,1.35,1.71,2.92,1.71,4.72s-.54,3.15-1.63,4.19c-1.11,1.07-2.46,1.81-4.05,2.23,2.18.65,3.86,1.66,5.03,3.03,1.19,1.4,1.78,2.96,1.78,4.7,0,2.08-.67,3.85-2,5.3-1.34,1.44-3.17,2.38-5.5,2.83-2.3.46-5.66.69-10.09.69ZM443.61,152.23v5.66h2.65c1.8,0,2.98-.26,3.54-.78.54-.52.8-1.2.8-2.05,0-.73-.25-1.38-.73-1.96-.49-.58-1.83-.87-4.03-.87h-2.23ZM443.61,163.52v6.1h2.7c1.72,0,2.96-.22,3.72-.67.74-.45,1.11-1.23,1.11-2.36,0-1.05-.33-1.83-1-2.34-.67-.49-1.96-.73-3.88-.73h-2.65Z"/>
  </g>
</svg>