<?xml version="1.0" encoding="UTF-8"?>
<svg id="Livello_1" data-name="Livello 1" xmlns="http://www.w3.org/2000/svg" viewBox="0 0 681 241">
  <defs>
    <style>
      .cls-1 {
        font-family: 'Koulen', sans-serif;
        font-weight: 800;
        letter-spacing: -.04em;
      }

      .cls-2 {
        letter-spacing: -.04em;
      }

      .cls-3, .cls-4 {
        fill: #d15988;
      }

      .cls-4 {
        font-size: 48px;
      }

      .cls-5 {
        fill: #fff;
        font-size: 78.2px;
      }

      .cls-6 {
        letter-spacing: 0em;
      }
    </style>
  </defs>
  <path class="cls-3" d="M46.28,135.41h0c-8.62,0-14.36-8.91-10.8-16.76L75.52,30.29c4.21-9.29,17.4-9.29,21.61,0l77.19,170.53c5.89,13.01-11.97,23.4-20.4,11.87-3.97-5.43-7.88-12.35-11.47-21.18-1.82-4.47-6.16-7.4-10.99-7.4H24.62c-8.66,0-14.4-8.97-10.77-16.83l.18-.4c1.94-4.2,6.14-6.89,10.77-6.89h86.83c8.71,0,14.45-9.08,10.71-16.95l-25.63-53.92c-4.31-9.08-17.25-9.01-21.48.11l-18.2,39.3c-1.94,4.19-6.14,6.88-10.76,6.88Z"/>
  <text class="cls-1" transform="translate(209.61 111.78)"><tspan class="cls-5"><tspan x="0" y="0">AE</tspan><tspan class="cls-6" x="95.42" y="0">S</tspan><tspan x="143.53" y="0">THETI</tspan><tspan class="cls-2" x="340.97" y="0">C</tspan><tspan x="389.23" y="0">A </tspan></tspan><tspan class="cls-4"><tspan x="0" y="57.6">DESIGNERS</tspan></tspan></text>
</svg>